HIERARCHY
ROOT pelvis
{
	OFFSET 0.031295 101.661964 1.536467
	CHANNELS 6 Xposition Yposition Zposition Xrotation Yrotation Zrotation
	JOINT spine01
	{
		OFFSET 0.403514 10.170219 0.293458
		CHANNELS 6 Xposition Yposition Zposition Xrotation Yrotation Zrotation
		JOINT spine02
		{
			OFFSET 0.172284 10.100235 -0.796211
			CHANNELS 6 Xposition Yposition Zposition Xrotation Yrotation Zrotation
			JOINT spine03
			{
				OFFSET 0.038693 9.134491 -1.120589
				CHANNELS 6 Xposition Yposition Zposition Xrotation Yrotation Zrotation
				JOINT neck
				{
					OFFSET -0.096090 16.749695 -1.927454
					CHANNELS 6 Xposition Yposition Zposition Xrotation Yrotation Zrotation
					JOINT head
					{
						OFFSET 0.374543 9.550110 1.999603
						CHANNELS 6 Xposition Yposition Zposition Xrotation Yrotation Zrotation
						End Site
						{
							OFFSET 0.000000 1.975693 0.000000
						}
					}
				}
				JOINT clavicle_L
				{
					OFFSET 4.418678 11.017120 -2.590022
					CHANNELS 6 Xposition Yposition Zposition Xrotation Yrotation Zrotation
					JOINT upperarm_L
					{
						OFFSET 10.208733 -3.595703 -0.555753
						CHANNELS 6 Xposition Yposition Zposition Xrotation Yrotation Zrotation
						JOINT lowerarm_L
						{
							OFFSET 10.181953 -25.891205 1.058981
							CHANNELS 6 Xposition Yposition Zposition Xrotation Yrotation Zrotation
							JOINT hand_L
							{
								OFFSET 1.662085 -24.519531 14.090791
								CHANNELS 6 Xposition Yposition Zposition Xrotation Yrotation Zrotation
								JOINT thumb01_L
								{
									OFFSET -2.766129 -1.464409 2.441634
									CHANNELS 6 Xposition Yposition Zposition Xrotation Yrotation Zrotation
									JOINT thumb02_L
									{
										OFFSET -2.234051 -2.826782 2.098602
										CHANNELS 6 Xposition Yposition Zposition Xrotation Yrotation Zrotation
										JOINT thumb03_L
										{
											OFFSET -1.514948 -2.612640 1.614424
											CHANNELS 6 Xposition Yposition Zposition Xrotation Yrotation Zrotation
											End Site
											{
												OFFSET 0.000000 1.975693 0.000000
											}
										}
									}
								}
								JOINT index00_L
								{
									OFFSET -1.040825 -5.587326 7.486865
									CHANNELS 6 Xposition Yposition Zposition Xrotation Yrotation Zrotation
									JOINT index01_L
									{
										OFFSET -1.566196 -3.203362 0.895214
										CHANNELS 6 Xposition Yposition Zposition Xrotation Yrotation Zrotation
										JOINT index02_L
										{
											OFFSET -1.922718 -0.101212 -2.145967
											CHANNELS 6 Xposition Yposition Zposition Xrotation Yrotation Zrotation
											JOINT index03_L
											{
												OFFSET -1.595675 -0.084000 -1.780951
												CHANNELS 6 Xposition Yposition Zposition Xrotation Yrotation Zrotation
												End Site
												{
													OFFSET 0.000000 1.975693 0.000000
												}
											}
										}
									}
								}
								JOINT middle00_L
								{
									OFFSET 1.017431 -6.546463 6.855241
									CHANNELS 6 Xposition Yposition Zposition Xrotation Yrotation Zrotation
									JOINT middle01_L
									{
										OFFSET -2.450264 -2.769989 -0.006073
										CHANNELS 6 Xposition Yposition Zposition Xrotation Yrotation Zrotation
										JOINT middle02_L
										{
											OFFSET -0.860657 1.629982 -2.304394
											CHANNELS 6 Xposition Yposition Zposition Xrotation Yrotation Zrotation
											JOINT middle03_L
											{
												OFFSET -0.826532 1.565361 -2.213027
												CHANNELS 6 Xposition Yposition Zposition Xrotation Yrotation Zrotation
												End Site
												{
													OFFSET 0.000000 1.975693 0.000000
												}
											}
										}
									}
								}
								JOINT ring00_L
								{
									OFFSET 2.319410 -7.079086 5.556918
									CHANNELS 6 Xposition Yposition Zposition Xrotation Yrotation Zrotation
									JOINT ring01_L
									{
										OFFSET -2.080965 -2.369385 -0.057785
										CHANNELS 6 Xposition Yposition Zposition Xrotation Yrotation Zrotation
										JOINT ring02_L
										{
											OFFSET -0.921402 1.895218 -2.046762
											CHANNELS 6 Xposition Yposition Zposition Xrotation Yrotation Zrotation
											JOINT ring03_L
											{
												OFFSET -0.830381 1.708000 -1.844574
												CHANNELS 6 Xposition Yposition Zposition Xrotation Yrotation Zrotation
												End Site
												{
													OFFSET 0.000000 1.975693 0.000000
												}
											}
										}
									}
								}
								JOINT pinky00_L
								{
									OFFSET 3.346634 -7.468887 3.604408
									CHANNELS 6 Xposition Yposition Zposition Xrotation Yrotation Zrotation
									JOINT pinky01_L
									{
										OFFSET -2.708309 -2.329971 -0.443076
										CHANNELS 6 Xposition Yposition Zposition Xrotation Yrotation Zrotation
										JOINT pinky02_L
										{
											OFFSET -0.699556 1.427353 -1.393963
											CHANNELS 6 Xposition Yposition Zposition Xrotation Yrotation Zrotation
											JOINT pinky03_L
											{
												OFFSET -0.653728 1.333847 -1.302645
												CHANNELS 6 Xposition Yposition Zposition Xrotation Yrotation Zrotation
												End Site
												{
													OFFSET 0.000000 1.975693 0.000000
												}
											}
										}
									}
								}
							}
						}
					}
				}
				JOINT clavicle_R
				{
					OFFSET -4.694508 11.046066 -1.885919
					CHANNELS 6 Xposition Yposition Zposition Xrotation Yrotation Zrotation
					JOINT upperarm_R
					{
						OFFSET -10.203596 -3.635376 -0.368164
						CHANNELS 6 Xposition Yposition Zposition Xrotation Yrotation Zrotation
						JOINT lowerarm_R
						{
							OFFSET -8.583656 -25.925476 -5.416519
							CHANNELS 6 Xposition Yposition Zposition Xrotation Yrotation Zrotation
							JOINT hand_R
							{
								OFFSET -1.804697 -27.704330 5.633170
								CHANNELS 6 Xposition Yposition Zposition Xrotation Yrotation Zrotation
								JOINT pinky00_R
								{
									OFFSET -2.830883 -8.446587 -0.773602
									CHANNELS 6 Xposition Yposition Zposition Xrotation Yrotation Zrotation
									JOINT pinky01_R
									{
										OFFSET 1.946447 -3.025932 -0.122695
										CHANNELS 6 Xposition Yposition Zposition Xrotation Yrotation Zrotation
										JOINT pinky02_R
										{
											OFFSET 1.500854 0.902176 -1.184628
											CHANNELS 6 Xposition Yposition Zposition Xrotation Yrotation Zrotation
											JOINT pinky03_R
											{
												OFFSET 1.402534 0.843071 -1.107024
												CHANNELS 6 Xposition Yposition Zposition Xrotation Yrotation Zrotation
												End Site
												{
													OFFSET 0.000000 1.975693 0.000000
												}
											}
										}
									}
								}
								JOINT ring00_R
								{
									OFFSET -2.237106 -8.920288 1.334079
									CHANNELS 6 Xposition Yposition Zposition Xrotation Yrotation Zrotation
									JOINT ring01_R
									{
										OFFSET 1.766579 -2.592438 -0.325883
										CHANNELS 6 Xposition Yposition Zposition Xrotation Yrotation Zrotation
										JOINT ring02_R
										{
											OFFSET 2.224691 1.135796 -1.546207
											CHANNELS 6 Xposition Yposition Zposition Xrotation Yrotation Zrotation
											JOINT ring03_R
											{
												OFFSET 2.004927 1.023598 -1.393466
												CHANNELS 6 Xposition Yposition Zposition Xrotation Yrotation Zrotation
												End Site
												{
													OFFSET 0.000000 1.975693 0.000000
												}
											}
										}
									}
								}
								JOINT middle00_R
								{
									OFFSET -1.279213 -8.960251 2.990981
									CHANNELS 6 Xposition Yposition Zposition Xrotation Yrotation Zrotation
									JOINT middle01_R
									{
										OFFSET 2.065887 -3.029488 -0.480600
										CHANNELS 6 Xposition Yposition Zposition Xrotation Yrotation Zrotation
										JOINT middle02_R
										{
											OFFSET 2.514072 0.879761 -1.270130
											CHANNELS 6 Xposition Yposition Zposition Xrotation Yrotation Zrotation
											JOINT middle03_R
											{
												OFFSET 2.414394 0.844879 -1.219770
												CHANNELS 6 Xposition Yposition Zposition Xrotation Yrotation Zrotation
												End Site
												{
													OFFSET 0.000000 1.975693 0.000000
												}
											}
										}
									}
								}
								JOINT index00_R
								{
									OFFSET 0.472795 -8.283737 4.415015
									CHANNELS 6 Xposition Yposition Zposition Xrotation Yrotation Zrotation
									JOINT index01_R
									{
										OFFSET 1.551720 -3.322227 -0.266232
										CHANNELS 6 Xposition Yposition Zposition Xrotation Yrotation Zrotation
										JOINT index02_R
										{
											OFFSET 2.555494 0.058037 -1.333540
											CHANNELS 6 Xposition Yposition Zposition Xrotation Yrotation Zrotation
											JOINT index03_R
											{
												OFFSET 2.120817 0.048164 -1.106712
												CHANNELS 6 Xposition Yposition Zposition Xrotation Yrotation Zrotation
												End Site
												{
													OFFSET 0.000000 1.975693 0.000000
												}
											}
										}
									}
								}
								JOINT thumb01_R
								{
									OFFSET 2.463066 -2.260330 2.137572
									CHANNELS 6 Xposition Yposition Zposition Xrotation Yrotation Zrotation
									JOINT thumb02_R
									{
										OFFSET 1.613766 -3.416832 1.762615
										CHANNELS 6 Xposition Yposition Zposition Xrotation Yrotation Zrotation
										JOINT thumb03_R
										{
											OFFSET 1.228722 -3.175117 0.368207
											CHANNELS 6 Xposition Yposition Zposition Xrotation Yrotation Zrotation
											End Site
											{
												OFFSET 0.000000 1.975693 0.000000
											}
										}
									}
								}
							}
						}
					}
				}
			}
		}
	}
	JOINT thigh_L
	{
		OFFSET 7.851649 -7.030708 -2.105456
		CHANNELS 6 Xposition Yposition Zposition Xrotation Yrotation Zrotation
		JOINT calf_L
		{
			OFFSET 4.935677 -40.151249 18.230156
			CHANNELS 6 Xposition Yposition Zposition Xrotation Yrotation Zrotation
			JOINT foot_L
			{
				OFFSET -3.928970 -32.627956 -30.045223
				CHANNELS 6 Xposition Yposition Zposition Xrotation Yrotation Zrotation
				JOINT toes_L
				{
					OFFSET 0.879377 -13.470181 2.947556
					CHANNELS 6 Xposition Yposition Zposition Xrotation Yrotation Zrotation
					End Site
					{
						OFFSET 0.000000 1.975696 0.000000
					}
				}
			}
		}
	}
	JOINT thigh_R
	{
		OFFSET -8.532416 -6.403770 -1.304555
		CHANNELS 6 Xposition Yposition Zposition Xrotation Yrotation Zrotation
		JOINT calf_R
		{
			OFFSET 1.270800 -43.322933 9.504332
			CHANNELS 6 Xposition Yposition Zposition Xrotation Yrotation Zrotation
			JOINT foot_R
			{
				OFFSET 2.680509 -43.191147 -10.491222
				CHANNELS 6 Xposition Yposition Zposition Xrotation Yrotation Zrotation
				JOINT toes_R
				{
					OFFSET 0.531110 -8.728668 10.697453
					CHANNELS 6 Xposition Yposition Zposition Xrotation Yrotation Zrotation
					End Site
					{
						OFFSET 0.000000 1.975696 0.000000
					}
				}
			}
		}
	}
}
MOTION
Frames: 4
Frame Time: 0.033333
-0.116219 102.264145 1.313881 0.000375 -1.375466 -0.009603 0.403514 10.170202 0.293458 0.019783 0.368608 -0.182488 0.172284 10.100204 -0.796212 0.031995 0.655723 -0.331095 0.038694 9.134496 -1.120587 0.022488 0.658428 -0.326386 -0.096090 16.749664 -1.927454 0.591353 -0.189087 0.694799 0.374543 9.550094 1.999602 -0.441552 0.122389 -0.317511 4.418678 11.017094 -2.590022 0.163024 1.179897 0.876256 10.208730 -3.595729 -0.555755 3.919857 2.683811 -2.340771 10.181952 -25.891176 1.058986 0.721811 1.645084 0.902217 1.662085 -24.519537 14.090786 0.054989 -2.470837 0.181078 -2.766132 -1.464402 2.441635 0.000002 0.000005 -0.000000 -2.234059 -2.826775 2.098595 0.000001 0.000009 -0.000001 -1.514940 -2.612664 1.614430 0.000002 0.000010 -0.000001 -1.040821 -5.587343 7.486864 -1.221861 0.624604 0.720896 -1.566194 -3.203361 0.895209 -2.082486 1.305291 1.808106 -1.922716 -0.101211 -2.145966 -0.000001 0.000003 -0.000001 -1.595674 -0.083984 -1.780950 -0.000000 0.000002 -0.000000 1.017423 -6.546463 6.855236 -1.095471 0.719909 0.777273 -2.450262 -2.769979 -0.006075 -1.880416 1.551451 1.837111 -0.860658 1.629981 -2.304399 -0.000000 0.000002 -0.000002 -0.826532 1.565353 -2.213028 0.000000 0.000000 -0.000000 2.319408 -7.079095 5.556919 -0.995290 0.567788 0.995396 -2.080964 -2.369397 -0.057785 -1.676188 1.426823 2.113592 -0.921397 1.895202 -2.046757 0.000001 -0.000003 -0.000000 -0.830384 1.708000 -1.844572 0.000000 -0.000003 -0.000000 3.346620 -7.468885 3.604407 -0.906453 0.514451 1.100229 -2.708299 -2.329958 -0.443078 -1.371063 1.512119 2.267095 -0.699548 1.427352 -1.393963 0.000000 0.000005 -0.000001 -0.653726 1.333847 -1.302644 -0.000000 -0.000003 0.000000 -4.694510 11.046047 -1.885918 -0.239234 0.804688 -0.692529 -10.203595 -3.635364 -0.368171 -1.894417 -3.086004 -0.458681 -8.583653 -25.925491 -5.416510 -9.883190 -0.050883 2.581994 -1.804696 -27.704330 5.633167 6.630201 1.948323 -1.677584 -2.830887 -8.446572 -0.773599 0.435152 0.260981 1.078310 1.946440 -3.025925 -0.122691 0.544118 0.487789 1.090060 1.500854 0.902192 -1.184629 0.000001 -0.000005 -0.000001 1.402533 0.843071 -1.107025 -0.000000 0.000000 -0.000000 -2.237113 -8.920258 1.334079 0.528172 0.236498 1.134644 1.766580 -2.592426 -0.325881 0.557622 0.292837 1.032836 2.224693 1.135796 -1.546205 0.000001 -0.000005 0.000001 2.004932 1.023598 -1.393467 0.000000 0.000000 0.000000 -1.279210 -8.960217 2.990979 0.597288 0.198966 1.324873 2.065894 -3.029476 -0.480598 0.443179 0.088541 0.937662 2.514075 0.879761 -1.270130 -0.000000 -0.000005 -0.000001 2.414397 0.844887 -1.219772 -0.000000 -0.000007 -0.000000 0.472790 -8.283728 4.415014 0.904558 0.269683 1.553609 1.551719 -3.322224 -0.266234 0.523536 0.097936 1.004871 2.555493 0.058052 -1.333539 -0.000000 -0.000007 -0.000001 2.120818 0.048157 -1.106713 -0.000000 -0.000005 -0.000000 2.463059 -2.260324 2.137574 -0.069440 0.379435 0.988189 1.613766 -3.416804 1.762614 -0.091134 -0.959011 0.218160 1.228717 -3.175119 0.368208 -0.000043 0.000005 -0.000035 7.851649 -7.030726 -2.105458 -3.761679 -0.165401 -0.113100 4.935678 -40.151245 18.230158 -7.094349 1.755663 2.005720 -3.928974 -32.627956 -30.045225 -2.173797 -0.390829 0.773731 0.879375 -13.470180 2.947556 -1.154740 1.922296 0.002064 -8.532414 -6.403753 -1.304557 4.681150 -0.713964 0.224756 1.270801 -43.322910 9.504325 -2.195149 0.811274 0.117273 2.680508 -43.191143 -10.491221 -0.056696 0.245383 -0.841011 0.531110 -8.728668 10.697453 -0.288788 -0.024325 -0.127355 
-0.223657 102.306221 1.007715 -0.134525 -2.531047 -0.177634 0.403514 10.170213 0.293458 0.131396 0.682376 -0.352324 0.172283 10.100218 -0.796212 0.255032 1.216689 -0.520461 0.038694 9.134473 -1.120587 0.238484 1.222700 -0.513979 -0.096090 16.749716 -1.927454 0.719017 -0.456349 1.662988 0.374543 9.550080 1.999602 -0.616196 0.415668 -0.954404 4.418678 11.017105 -2.590023 0.280624 1.722919 0.763782 10.208733 -3.595754 -0.555756 8.603619 4.200738 -2.729153 10.181954 -25.891169 1.058985 0.240488 0.921647 1.210202 1.662082 -24.519522 14.090793 0.175381 -1.333068 -0.356688 -2.766123 -1.464409 2.441637 0.000002 0.000000 0.000000 -2.234062 -2.826783 2.098593 0.000001 0.000009 -0.000001 -1.514941 -2.612645 1.614428 0.000039 -0.000010 -0.000041 -1.040821 -5.587362 7.486863 -2.621687 1.341388 1.592450 -1.566200 -3.203366 0.895216 -4.415726 2.660242 3.847010 -1.922716 -0.101196 -2.145963 -0.000001 -0.000002 -0.000001 -1.595675 -0.084000 -1.780947 -0.000000 -0.000002 0.000000 1.017423 -6.546481 6.855237 -2.355491 1.545641 1.711927 -2.450264 -2.769990 -0.006078 -4.003702 3.185385 3.909150 -0.860656 1.629981 -2.304395 -0.000001 0.000005 -0.000002 -0.826535 1.565369 -2.213029 -0.000000 0.000000 0.000000 2.319407 -7.079102 5.556918 -2.141572 1.221405 2.168650 -2.080968 -2.369414 -0.057785 -3.575271 2.916444 4.484955 -0.921396 1.895203 -2.046758 0.000001 -0.000003 0.000000 -0.830383 1.708000 -1.844572 -0.000000 0.000000 -0.000000 3.346627 -7.468886 3.604413 -1.947198 1.100693 2.395871 -2.708299 -2.329961 -0.443084 -2.944927 3.107007 4.798570 -0.699547 1.427352 -1.393963 0.000001 0.000002 -0.000001 -0.653729 1.333839 -1.302646 -0.000000 0.000000 0.000000 -4.694503 11.046086 -1.885920 -0.460394 1.304633 -1.821223 -10.203600 -3.635388 -0.368168 -6.312735 -1.855514 -0.548768 -8.583652 -25.925467 -5.416517 -14.543728 -0.228494 3.983086 -1.804694 -27.704336 5.633165 10.465144 0.453256 -3.271668 -2.830883 -8.446560 -0.773602 0.900179 0.553105 2.024589 1.946435 -3.025923 -0.122693 1.118079 1.025833 2.258101 1.500853 0.902192 -1.184628 0.000003 -0.000007 0.000000 1.402534 0.843063 -1.107027 0.000000 0.000003 0.000000 -2.237110 -8.920266 1.334077 1.015229 0.483148 2.155647 1.766579 -2.592419 -0.325882 1.100763 0.591833 2.046587 2.224684 1.135780 -1.546207 0.000001 -0.000003 0.000001 2.004924 1.023590 -1.393467 0.000001 -0.000005 -0.000001 -1.279206 -8.960224 2.990973 1.142939 0.405764 2.451535 2.065885 -3.029479 -0.480601 0.907489 0.187591 1.923689 2.514072 0.879761 -1.270135 0.000001 0.000000 -0.000000 2.414398 0.844887 -1.219778 -0.000000 0.000000 0.000000 0.472798 -8.283728 4.415016 1.542562 0.489432 2.719014 1.551716 -3.322231 -0.266228 1.042640 0.192103 2.006332 2.555491 0.058037 -1.333539 0.000001 -0.000007 -0.000000 2.120820 0.048149 -1.106713 0.000000 0.000003 0.000001 2.463068 -2.260311 2.137568 -0.279101 0.820691 2.154119 1.613770 -3.416811 1.762613 -0.719896 -1.376696 0.481744 1.228718 -3.175117 0.368214 0.000001 0.000000 0.000001 7.851648 -7.030699 -2.105455 -5.982957 -0.890013 -0.173015 4.935677 -40.151257 18.230162 -16.785748 3.145587 4.969312 -3.928973 -32.627956 -30.045221 -3.755072 -0.974128 1.595591 0.879376 -13.470181 2.947558 -2.556686 7.024477 0.013190 -8.532419 -6.403732 -1.304554 8.911954 -1.469607 0.189435 1.270800 -43.322926 9.504326 -3.398707 1.816465 0.639230 2.680508 -43.191143 -10.491221 -0.449939 0.394823 -1.238532 0.531111 -8.728668 10.697453 -0.423570 -0.127955 -0.093167 
-0.263248 101.902878 0.897934 -0.343710 -3.352421 -0.257996 0.403514 10.170213 0.293459 0.187004 0.919558 -0.509843 0.172283 10.100213 -0.796212 0.369777 1.651790 -0.608893 0.038694 9.134486 -1.120588 0.348446 1.659424 -0.600297 -0.096091 16.749723 -1.927452 1.713929 -0.625830 2.268924 0.374543 9.550150 1.999602 -1.213502 0.669509 -1.359698 4.418678 11.017156 -2.590023 0.420029 2.619724 1.152290 10.208733 -3.595703 -0.555757 12.367719 4.953772 -4.070954 10.181955 -25.891191 1.058985 1.568464 0.534656 1.826962 1.662080 -24.519545 14.090791 -0.343893 -1.161635 -0.814823 -2.766131 -1.464386 2.441636 0.000002 0.000005 -0.000000 -2.234053 -2.826805 2.098593 -0.000021 0.000000 -0.000017 -1.514939 -2.612648 1.614431 0.000002 0.000002 0.000001 -1.040826 -5.587342 7.486868 -4.093193 2.068077 2.534220 -1.566194 -3.203359 0.895217 -6.873298 3.968047 6.007824 -1.922718 -0.101211 -2.145968 -0.000002 -0.000007 -0.000000 -1.595677 -0.083992 -1.780947 -0.000000 -0.000003 -0.000000 1.017422 -6.546470 6.855241 -3.684689 2.387538 2.719153 -2.450267 -2.769991 -0.006076 -6.256091 4.784247 6.115062 -0.860659 1.629989 -2.304394 -0.000001 0.000000 -0.000001 -0.826530 1.565354 -2.213032 -0.000001 0.000000 -0.000001 2.319402 -7.079091 5.556920 -3.349572 1.882265 3.418133 -2.080963 -2.369398 -0.057785 -5.600613 4.370592 6.981212 -0.921397 1.895203 -2.046753 0.000002 -0.000003 -0.000000 -0.830384 1.708008 -1.844570 0.000001 -0.000002 0.000001 3.346626 -7.468858 3.604412 -3.043297 1.688848 3.771137 -2.708301 -2.329990 -0.443086 -4.642782 4.676076 7.458132 -0.699551 1.427329 -1.393959 0.000003 0.000010 -0.000001 -0.653733 1.333847 -1.302644 0.000001 0.000002 0.000001 -4.694508 11.046092 -1.885919 -0.656097 1.826164 -2.773818 -10.203605 -3.635399 -0.368164 -11.193117 0.665542 -0.607082 -8.583652 -25.925465 -5.416513 -16.904442 -0.677268 3.667234 -1.804694 -27.704332 5.633161 12.343243 -1.256480 -4.593353 -2.830877 -8.446557 -0.773597 1.243116 0.829823 2.878280 1.946444 -3.025935 -0.122690 1.615489 1.500851 3.256168 1.500852 0.902192 -1.184630 0.000002 -0.000005 -0.000001 1.402533 0.843071 -1.107026 0.000000 0.000005 -0.000001 -2.237109 -8.920283 1.334077 1.529203 0.750697 3.202601 1.766572 -2.592437 -0.325883 1.614878 0.892072 2.998522 2.224689 1.135788 -1.546203 0.000001 -0.000005 0.000001 2.004925 1.023606 -1.393465 0.000001 -0.000002 -0.000000 -1.279208 -8.960216 2.990985 1.678424 0.627562 3.512170 2.065883 -3.029471 -0.480602 1.369205 0.291838 2.908916 2.514077 0.879753 -1.270133 -0.000001 0.000000 -0.000001 2.414394 0.844894 -1.219771 0.000000 -0.000002 -0.000001 0.472794 -8.283736 4.415018 2.275510 0.752240 3.900659 1.551723 -3.322186 -0.266234 1.555492 0.281857 2.999963 2.555495 0.058044 -1.333543 -0.000001 0.000000 -0.000000 2.120816 0.048164 -1.106712 -0.000001 -0.000003 -0.000000 2.463057 -2.260323 2.137577 -0.563011 1.295240 3.399536 1.613769 -3.416817 1.762625 -0.966676 -1.854220 0.657889 1.228722 -3.175126 0.368205 0.000001 0.000000 -0.000000 7.851650 -7.030689 -2.105458 -7.437444 -1.504114 -0.324228 4.935678 -40.151268 18.230160 -27.324921 3.075887 7.462742 -3.928975 -32.627964 -30.045229 -3.743672 -1.804972 2.527760 0.879378 -13.470180 2.947555 -1.784326 3.989937 -0.005343 -8.532415 -6.403746 -1.304552 13.234299 -2.539787 -0.247930 1.270799 -43.322926 9.504327 -4.329115 3.062749 1.534791 2.680507 -43.191151 -10.491219 -1.279000 0.554259 -1.705696 0.531110 -8.728670 10.697457 -2.147150 -0.329703 0.032257 
-0.295354 101.167526 0.583770 -0.446759 -3.962734 -0.136589 0.403514 10.170228 0.293458 0.261481 1.112290 -0.726388 0.172283 10.100205 -0.796212 0.523764 2.031144 -0.771115 0.038694 9.134509 -1.120588 0.497280 2.041298 -0.761232 -0.096090 16.749733 -1.927454 2.294950 -0.828737 3.050656 0.374542 9.550126 1.999604 -1.594374 0.894999 -1.776263 4.418676 11.017141 -2.590024 0.417534 2.951689 1.824360 10.208733 -3.595712 -0.555759 15.490147 5.848913 -6.111705 10.181953 -25.891188 1.058980 3.338234 0.760200 3.025995 1.662085 -24.519529 14.090785 -1.022481 -2.518297 -1.195961 -2.766124 -1.464404 2.441630 -0.000020 0.000024 0.000018 -2.234050 -2.826773 2.098597 0.000003 -0.000003 -0.000034 -1.514939 -2.612650 1.614429 0.000004 0.000009 0.000001 -1.040823 -5.587342 7.486863 -5.525116 2.731096 3.458205 -1.566196 -3.203363 0.895209 -9.316608 5.150643 8.167944 -1.922720 -0.101211 -2.145967 -0.000002 0.000002 0.000001 -1.595674 -0.083985 -1.780949 0.000001 0.000000 0.000001 1.017422 -6.546465 6.855235 -4.981876 3.164025 3.706854 -2.450263 -2.769993 -0.006077 -8.513041 6.255675 8.328045 -0.860661 1.629982 -2.304397 -0.000001 0.000002 -0.000003 -0.826534 1.565346 -2.213026 0.000000 0.000000 -0.000000 2.319409 -7.079082 5.556920 -4.526137 2.481797 4.634726 -2.080960 -2.369421 -0.057785 -7.636583 5.699868 9.465384 -0.921393 1.895210 -2.046755 0.000002 -0.000002 -0.000000 -0.830383 1.708001 -1.844573 -0.000000 0.000000 0.000001 3.346620 -7.468886 3.604406 -4.109776 2.218767 5.106467 -2.708299 -2.329970 -0.443081 -6.368944 6.126247 10.098421 -0.699550 1.427337 -1.393955 -0.000001 0.000009 -0.000002 -0.653729 1.333839 -1.302649 0.000001 -0.000003 0.000000 -4.694507 11.046092 -1.885919 -0.790143 2.344134 -3.212678 -10.203599 -3.635374 -0.368169 -16.042284 4.670364 -0.350743 -8.583657 -25.925461 -5.416517 -18.100341 -0.924142 1.168605 -1.804688 -27.704338 5.633162 11.807410 -3.626125 -5.487209 -2.830881 -8.446568 -0.773599 1.539930 1.104317 3.774470 1.946444 -3.025915 -0.122693 2.178857 2.069974 4.430429 1.500848 0.902177 -1.184633 0.000000 -0.000005 -0.000000 1.402535 0.843063 -1.107028 -0.000000 0.000000 -0.000000 -2.237108 -8.920283 1.334085 2.077888 1.044225 4.364481 1.766581 -2.592442 -0.325886 2.169272 1.227079 4.034496 2.224694 1.135788 -1.546207 0.000002 -0.000007 0.000001 2.004930 1.023598 -1.393468 -0.000000 -0.000003 0.000000 -1.279206 -8.960235 2.990981 2.317220 0.893635 4.760510 2.065885 -3.029482 -0.480599 1.885832 0.425810 4.010357 2.514079 0.879753 -1.270130 -0.000000 0.000003 0.000001 2.414396 0.844879 -1.219767 -0.000001 0.000000 -0.000001 0.472798 -8.283730 4.415020 3.239139 1.106169 5.336141 1.551721 -3.322218 -0.266233 2.180891 0.429035 4.196837 2.555489 0.058045 -1.333534 -0.000001 -0.000007 -0.000000 2.120816 0.048172 -1.106718 -0.000001 -0.000003 -0.000001 2.463067 -2.260335 2.137578 -0.851041 1.773692 4.626997 1.613768 -3.416834 1.762613 -0.475264 -2.909455 0.762165 1.228714 -3.175118 0.368216 0.000001 0.000002 0.000001 7.851649 -7.030704 -2.105454 -8.760644 -1.772618 -0.767769 4.935679 -40.151249 18.230169 -37.460087 1.119161 8.909245 -3.928974 -32.627956 -30.045229 -1.191537 -2.198790 2.764672 0.879376 -13.470181 2.947558 -1.863058 3.131249 0.012394 -8.532415 -6.403762 -1.304554 17.028939 -3.334884 -0.972046 1.270798 -43.322941 9.504330 -4.707374 3.986661 2.344773 2.680508 -43.191143 -10.491220 -1.907680 0.699750 -1.985855 0.531111 -8.728669 10.697453 -4.955776 -0.708079 0.080364 
